# xmcd
#
# Track frame offsets:
#	150
#	33717
#	47783
#	62629
#	74460
#	86616
#	101366
#	115076
#	125546
#	140519
#	152392
#	169630
#
# Disc length: 2596 seconds
#
# Revision: 1
# Processed by: cddbd v1.5.2PL0 Copyright (c) Steve Scherf et al.
# Submitted via: audiograbber 1.83.01
#
DISCID=9e0a220c
DTITLE=The Greatest Country Music Recordings Of All Time - Record 58
DYEAR=1900
DGENRE=
TTITLE0=Jerry Clower - A Coon Huntin' Story
TTITLE1=Billy Edd Wheeler - Ode To The Little Brown Shack Out Back
TTITLE2=Jerry Reed - Lord, Mr Ford
TTITLE3=Roy Clark - Thank God And Greyhound
TTITLE4=Jim Stafford - Wildwood Weed
TTITLE5=Ray Stevens - The Streak
TTITLE6=Uncle Dave Macon - Two-In-One Chewing Gum
TTITLE7=Jerry Reed - When You're Hot You're Hot
TTITLE8=Bobby Bare - The Mermaid
TTITLE9=Archie Campbell - Rindercella
TTITLE10=C. W. McCall - Convoy
TTITLE11=Ray Stevens - Shriner's Convention
EXTD=
EXTT0=
EXTT1=
EXTT2=
EXTT3=
EXTT4=
EXTT5=
EXTT6=
EXTT7=
EXTT8=
EXTT9=
EXTT10=
EXTT11=
PLAYORDER=
